<?xml version="1.0" encoding="UTF-8" standalone="no"?>
<svg
   xmlns:dc="http://purl.org/dc/elements/1.1/"
   xmlns:cc="http://creativecommons.org/ns#"
   xmlns:rdf="http://www.w3.org/1999/02/22-rdf-syntax-ns#"
   xmlns:svg="http://www.w3.org/2000/svg"
   xmlns="http://www.w3.org/2000/svg"
   viewBox="0 0 88.76033 99.903053"
   height="80"
   width="71"
   version="1.1"
   id="svg2">
  <metadata
     id="metadata8">
    <rdf:RDF>
      <cc:Work
         rdf:about="">
        <dc:format>image/svg+xml</dc:format>
        <dc:type
           rdf:resource="http://purl.org/dc/dcmitype/StillImage" />
        <dc:title></dc:title>
      </cc:Work>
    </rdf:RDF>
  </metadata>
  <defs
     id="defs6" />
  <path
     id="path15918"
     d="m 39.376575,96.154092 c -3.96273,-4.709431 -4.00222,-5.897572 -0.37493,-11.280111 l 2.8612,-4.245725 -2.48325,-8.863161 c -2.3784,-8.488963 -2.72138,-8.973581 -8.12352,-11.478545 l -5.64028,-2.615384 -4.81226,2.869686 c -2.64674,1.578328 -5.76307,4.77419 -6.92517,7.101917 -2.50349,5.014577 -7.7904597,6.328377 -11.5984497,2.88219 -2.92600003,-2.647989 -3.02796003,-5.307112 -0.35009,-9.130304 1.7409,-2.485488 2.74725,-2.798415 6.87615,-2.138178 3.8746797,0.619588 5.8311097,0.145739 9.8356297,-2.382203 4.18259,-2.640357 4.99885,-3.828454 4.99885,-7.276044 0,-2.266224 0.82586,-5.212293 1.83525,-6.546819 1.00938,-1.334527 1.85313,-3.973287 1.875,-5.863912 0.0428,-3.697524 2.15041,-4.65656 3.35201,-1.525249 0.4389,1.143746 1.61267,1.633309 2.92067,1.218167 1.20277,-0.381747 3.78742,-0.08555 5.74366,0.658207 3.43491,1.305951 3.93172,0.953652 14.49778,-10.280667 9.41628,-10.011821 10.84819,-12.101782 10.27509,-14.997144 -0.71379,-3.6061486 1.17428,-8.1879018 4.39222,-10.6585586 3.36273,-2.5818235 7.62256,-1.7803236 11.58209,2.1792058 3.04831,3.0483164 3.62026,4.4418182 2.95003,7.1874988 -1.35797,5.563102 -4.98761,8.339636 -10.60899,8.11547 -4.71668,-0.188088 -5.482,0.35829 -15.68763,11.199686 -7.7123,8.192736 -10.47497,11.951825 -9.82541,13.369152 0.497,1.084453 0.99781,3.780898 1.11291,5.9921 0.1151,2.211203 0.8837,4.832999 1.708,5.826215 1.67584,2.019268 0.12057,3.647263 -2.57238,2.692669 -0.92141,-0.326622 -2.69548,0.181616 -3.94236,1.129421 -1.96498,1.493659 -2.0899,2.405035 -0.9375,6.839803 0.73126,2.814089 1.90361,7.328915 2.60524,10.03295 0.91923,3.542706 2.01931,5.027095 3.93709,5.3125 3.99138,0.594 7.78701,6.359621 6.79326,10.319054 -2.14848,8.560201 -10.78638,10.872921 -16.26991,4.356113 z m 9.34606,-1.198073 c 1.5504,-0.829749 2.41782,-2.615017 2.41782,-4.976185 0,-2.890273 -0.67559,-3.851767 -3.14123,-4.470604 -1.80164,-0.452184 -3.93391,-0.130535 -5,0.75424 -2.53379,2.102855 -2.34436,7.079474 0.32873,8.636405 2.7445,1.598524 2.51713,1.596157 5.39468,0.05615 z M 9.8904553,66.32377 c 0,-3.151498 -2.14323,-4.425978 -4.35546,-2.589993 -2.27597,1.88889 -1.03582,5.016222 1.98919,5.016222 1.50895,0 2.36627,-0.879042 2.36627,-2.426229 z M 41.354525,55.431264 c 2.8483,-2.57767 2.96303,-8.86123 0.21719,-11.895339 -4.51285,-4.986646 -14.18126,-1.005719 -14.18126,5.839074 0,6.734138 8.93368,10.608707 13.96407,6.056265 z m 35.78593,-41.931265 c 4.15351,-4.153513 -0.73455,-11.3179844 -5.85294,-8.5787037 -3.48287,1.8639771 -4.25946,5.1064027 -1.85846,7.7594757 2.40829,2.661131 5.5371,2.993524 7.7114,0.819228 z m -0.28384,67.037591 c -1.07932,-1.079325 -2.30548,-3.329325 -2.72479,-5 -0.41932,-1.670675 -1.26391,-3.037591 -1.87688,-3.037591 -0.61297,0 -1.11449,-0.909355 -1.11449,-2.020789 0,-1.455756 0.75553,-1.823214 2.70209,-1.314176 1.48615,0.388636 3.73615,0.153201 5,-0.523192 2.38427,-1.27602 6.9967,0.345293 8.84127,3.107787 4.30707,6.450438 -5.33703,14.278131 -10.8272,8.787961 z m 6.7384,-3.607835 c 1.71775,-2.069769 0.74304,-4.429756 -1.82956,-4.429756 -2.24939,0 -3.52964,2.142542 -2.65,4.434858 0.88793,2.313909 2.55653,2.312008 4.47956,-0.0051 z M 58.952955,65.013699 c -4.00102,-2.43947 -5.02477,-4.271443 -3.06413,-5.483187 1.34241,-0.829655 10.54884,4.438728 11.19612,6.406987 0.77661,2.361511 -3.54978,1.870031 -8.13199,-0.9238 z M 21.201675,26.369992 c -2.11045,-4.136811 -2.21019,-4.987226 -0.65492,-5.584038 1.2298,-0.471917 2.64275,0.879911 4.28563,4.100228 2.29896,4.506333 2.26252,6.363817 -0.12486,6.363817 -0.55894,0 -2.13658,-2.196003 -3.50585,-4.880007 z M 12.500315,14.896236 C 10.154495,13.642547 7.7724853,11.887396 7.2069553,10.9959 4.3353153,6.4690096 7.9408853,0 13.335655,0 c 3.32563,0 8.2041,6.0075705 7.03651,8.6650724 -0.47361,1.0779594 -0.96416,3.3352296 -1.0901,5.0161566 -0.28855,3.851065 -1.45746,4.060486 -6.78175,1.215007 z m 3.22035,-6.8552576 c 0.41346,-1.077462 0.11054,-2.6002299 -0.67316,-3.3839287 -1.7593,-1.7592962 -5.9271597,1.8356283 -4.60619,3.9729987 1.24762,2.0186936 4.41424,1.6653626 5.27935,-0.58907 z"
     style="fill:#f39f18;fill-opacity:1" />
  <path
     id="path15916"
     d=""
     style="fill:#000000" />
  <path
     id="path3338"
     d=""
     style="fill:#000000" />
</svg>
