<?xml version="1.0" encoding="UTF-8" standalone="no"?>
<svg
   xmlns:dc="http://purl.org/dc/elements/1.1/"
   xmlns:cc="http://creativecommons.org/ns#"
   xmlns:rdf="http://www.w3.org/1999/02/22-rdf-syntax-ns#"
   xmlns:svg="http://www.w3.org/2000/svg"
   xmlns="http://www.w3.org/2000/svg"
   viewBox="0 0 123.75 73.310265"
   height="59"
   width="99"
   version="1.1"
   id="svg2">
  <metadata
     id="metadata8">
    <rdf:RDF>
      <cc:Work
         rdf:about="">
        <dc:format>image/svg+xml</dc:format>
        <dc:type
           rdf:resource="http://purl.org/dc/dcmitype/StillImage" />
        <dc:title></dc:title>
      </cc:Work>
    </rdf:RDF>
  </metadata>
  <defs
     id="defs6" />
  <path
     id="path4221"
     d="m 48.91296,72.253576 c -8.00667,-1.163936 -10.81104,-3.460054 -9.6885,-7.932599 0.98198,-3.912535 8.93648,-11.834302 12.87605,-12.823071 3.52187,-0.883933 3.54203,-1.120523 0.43234,-5.073853 -5.61749,-7.141485 -3.87637,-17.081089 3.67623,-20.986694 4.6051,-2.381388 6.72674,-2.381388 11.331837,0 7.552609,3.905605 9.293725,13.845209 3.676233,20.986694 -3.10969,3.95333 -3.08953,4.18992 0.432344,5.073853 3.93957,0.988769 11.894064,8.910536 12.876048,12.823071 1.159528,4.619925 -1.631314,6.673723 -10.88666,8.011565 C 64.46577,73.658497 58.44509,73.639268 48.91296,72.253582 Z M 0.01547,48.2287 c 0.0101,-1.843666 1.55818,-3.812141 4.4939,-5.714433 2.46314,-1.596063 4.75435,-2.626012 5.09159,-2.288776 0.33724,0.337238 -0.56002,1.241023 -1.9939,2.008413 C 1.8233,45.329279 5.42619,46.0412 26.875,46.0412 c 12.03125,0 21.875,0.45 21.875,1 0,3.417674 -3.76692,4 -25.875,4 l -22.875,0 0.0155,-2.8125 z m 76.484531,1.3125 c -0.825,-0.825 -1.5,-1.95 -1.5,-2.5 0,-0.55 9.84375,-1 21.875,-1 21.448819,0 25.051699,-0.711921 19.267939,-3.807296 -1.43388,-0.76739 -2.33113,-1.671175 -1.9939,-2.008413 0.33724,-0.337236 2.62845,0.692713 5.09159,2.288776 2.93572,1.902292 4.48376,3.870767 4.4939,5.714433 l 0.0155,2.8125 -22.875,0 c -16.125003,0 -23.317625,-0.442623 -24.375003,-1.5 z M 22.1875,35.838349 c -1.89062,-0.690515 -3.4354,-1.911733 -3.43283,-2.713815 0.01,-3.077765 4.93977,-9.349198 8.63514,-10.984928 2.12546,-0.940817 3.69322,-1.994713 3.48391,-2.341992 -5.17949,-8.593816 -4.89452,-14.3832828 0.89469,-18.1765168 9.16576,-6.005641 18.89517,5.972002 11.98596,14.7556378 l -2.49563,3.17268 4.28356,2.527366 4.28357,2.527365 -2.41294,4.732829 C 46.08582,31.940031 45,34.794619 45,35.680502 c 0,0.973914 -1.55914,1.610698 -3.94373,1.610698 -3.79024,0 -3.86039,-0.0921 -1.80233,-2.366225 1.96963,-2.176424 1.98584,-2.738539 0.20203,-7.007793 -1.06665,-2.552862 -1.62866,-5.144311 -1.2489,-5.758775 0.37976,-0.614463 -0.0637,-1.117207 -0.9854,-1.117207 -2.57523,0 -5.46507,11.022571 -3.65128,13.926905 1.32022,2.114005 1.02794,2.314212 -3.2473,2.224411 -2.58395,-0.05428 -6.24496,-0.663651 -8.13559,-1.354167 z m 56.562501,-0.157847 c 0,-0.885883 -1.08582,-3.740471 -2.412934,-6.343527 l -2.412933,-4.732829 4.283564,-2.527365 4.283565,-2.527366 -2.495631,-3.17268 C 73.086424,7.5930992 82.815828,-4.3845438 91.981595,1.6210972 c 5.789207,3.793234 6.074176,9.5827008 0.894683,18.1765168 -0.209305,0.347278 1.358455,1.401175 3.48391,2.341992 3.685582,1.631396 8.625202,7.904828 8.635142,10.966813 0.008,2.387226 -7.318958,4.184781 -17.056858,4.184781 -6.664084,0 -9.188471,-0.442514 -9.188471,-1.610698 z"
     style="fill:#f39f18;fill-opacity:1" />
</svg>
