<?xml version="1.0" encoding="UTF-8" standalone="no"?>
<svg
   xmlns:dc="http://purl.org/dc/elements/1.1/"
   xmlns:cc="http://creativecommons.org/ns#"
   xmlns:rdf="http://www.w3.org/1999/02/22-rdf-syntax-ns#"
   xmlns:svg="http://www.w3.org/2000/svg"
   xmlns="http://www.w3.org/2000/svg"
   viewBox="0 0 95.439384 92.124253"
   height="74"
   width="77"
   version="1.1"
   id="svg2">
  <metadata
     id="metadata8">
    <rdf:RDF>
      <cc:Work
         rdf:about="">
        <dc:format>image/svg+xml</dc:format>
        <dc:type
           rdf:resource="http://purl.org/dc/dcmitype/StillImage" />
        <dc:title></dc:title>
      </cc:Work>
    </rdf:RDF>
  </metadata>
  <defs
     id="defs6" />
  <path
     id="path4285"
     d="m 42.983573,89.244424 c -0.36805,-1.76338 -0.94066,-4.53077 -1.27247,-6.14975 -0.55534,-2.709629 -1.08684,-2.897128 -6.68716,-2.359007 -5.01332,0.481716 -6.23412,0.193056 -6.9377,-1.640427 -1.17349,-3.058081 0.51862,-4.382626 6.64933,-5.204927 l 5.2239,-0.700671 -0.38504,-6.388184 c -0.35043,-5.81387 -0.13169,-6.42416 2.43304,-6.788355 2.98125,-0.42334 3.43292,0.294345 4.58423,7.284201 0.71838,4.361414 0.75192,4.38166 6.50079,3.924432 9.70963,-0.772237 10.57734,5.335195 0.96284,6.776979 l -5.53761,0.830416 0.33583,6.417073 c 0.30324,5.79421 0.0671,6.45528 -2.43248,6.81072 -2.11344,0.30053 -2.92663,-0.36481 -3.4375,-2.8125 z M 9.0945535,68.669392 c -12.3002,-5.586528 -12.07367,-22.37719 0.37619,-27.884359 4.1006295,-1.813904 6.3032295,-2.128763 8.8400195,-1.263673 3.08256,1.051204 4.15962,0.41419 12.29135,-7.269612 9.53455,-9.009345 18.11724,-13.257438 29.51119,-14.606884 3.2731,-0.38765 5.95108,-0.967386 5.95108,-1.288304 0,-0.320917 -1.40625,-1.689642 -3.125,-3.041611 -5.7333,-4.5098161 -3.22095,-10.5151331 2.75967,-6.5964821 4.90395,3.21319 14.11533,11.9596431 14.11533,13.4028801 0,1.986751 -13.77482,17.166927 -15.57764,17.166927 -0.88894,0 -2.27468,-0.793361 -3.07943,-1.763026 -1.16362,-1.402081 -0.64907,-2.690236 2.5133,-6.291981 2.18706,-2.490927 3.6865,-4.818938 3.33208,-5.173358 -1.231,-1.231 -17.78704,3.341691 -22.85732,6.313074 -7.37007,4.319151 -16.0241,14.039127 -14.85568,16.685511 3.87296,8.771953 0.7659,17.856418 -7.37071,21.550556 -6.41947,2.914539 -6.53893,2.915102 -12.8244295,0.06034 z M 21.064383,61.038274 c 4.50805,-4.508048 2.69479,-12.802632 -3.11768,-14.261467 -3.18796,-0.800128 -7.9511095,0.928319 -9.6756795,3.511097 -1.76128,2.637764 -0.93698,7.485165 1.7612495,10.357307 3.34032,3.5556 7.71375,3.711421 11.03211,0.393063 z m 53.8655,5.764159 c -1.00754,-1.214006 -1.09307,-3.28267 -0.28453,-6.88125 l 1.1561,-5.14541 -4.84493,-0.774736 c -5.44857,-0.87126 -8.04758,-3.201728 -6.90149,-6.188387 0.62563,-1.63036 1.90642,-1.851208 6.8182,-1.175666 l 6.04787,0.831795 1.13973,-5.402753 c 0.97515,-4.622546 1.59021,-5.402752 4.25915,-5.402752 3.26527,0 3.46189,0.716571 2.37068,8.639704 -0.46846,3.401471 -0.1331,3.728741 5.12372,5 4.33824,1.049118 5.625,1.932193 5.625,3.860296 0,2.184395 -0.81715,2.493871 -6.4729,2.451457 -6.43433,-0.04825 -6.47783,-0.02219 -7.29936,4.375 -1.29786,6.946729 -3.91915,9.208302 -6.73724,5.812702 z M 7.7742535,29.183703 c -0.43041,-1.121636 0.0962,-4.276541 1.17032,-7.0109 L 10.897453,17.201242 6.0773835,15.27263 C 1.2453535,13.339234 -0.86990654,10.656749 0.58335346,8.3053229 1.3183835,7.1160179 3.6045835,7.3094849 11.240453,9.2071689 c 2.96014,0.735659 3.45726,0.347144 4.81333,-3.761766 1.67956,-5.08912403 4.13015,-6.69395 6.81686,-4.46417903 1.53222,1.27162703 1.53005,2.16527503 -0.0159,6.54700203 -0.98469,2.7909011 -1.79034,5.2734611 -1.79034,5.5168021 0,0.24334 2.28555,1.608437 5.079,3.03355 8.75596,4.466952 4.93651,8.528441 -5.32564,5.663135 -3.03853,-0.848391 -3.59446,-0.468185 -5.62695,3.848339 -2.41434,5.127467 -6.1359695,6.930765 -7.4165395,3.593651 z"
     style="fill:#f39f18;fill-opacity:1" />
</svg>
