<?xml version="1.0" encoding="UTF-8" standalone="no"?>
<svg
   xmlns:dc="http://purl.org/dc/elements/1.1/"
   xmlns:cc="http://creativecommons.org/ns#"
   xmlns:rdf="http://www.w3.org/1999/02/22-rdf-syntax-ns#"
   xmlns:svg="http://www.w3.org/2000/svg"
   xmlns="http://www.w3.org/2000/svg"
   viewBox="0 0 91.182472 68.472626"
   height="68.472626"
   width="91.182472"
   version="1.1"
   id="svg2">
  <metadata
     id="metadata8">
    <rdf:RDF>
      <cc:Work
         rdf:about="">
        <dc:format>image/svg+xml</dc:format>
        <dc:type
           rdf:resource="http://purl.org/dc/dcmitype/StillImage" />
        <dc:title></dc:title>
      </cc:Work>
    </rdf:RDF>
  </metadata>
  <defs
     id="defs6" />
  <path
     id="path4317"
     d="m 29.798796,67.294583 c -5.39917,-1.524802 -10.13826,-6.058972 -8.7242,-8.346969 0.78183,-1.265032 2.45528,-1.198372 8.33009,0.331822 9.25698,2.411137 14.39526,2.411315 23.64978,8.18e-4 7.61169,-1.982595 10.42422,-1.238457 9.03197,2.389679 -2.05211,5.347719 -21.35897,8.71106 -32.28764,5.62465 z m 0,-11.25 c -5.39917,-1.524802 -10.13826,-6.058972 -8.7242,-8.346968 0.78183,-1.265033 2.45528,-1.198373 8.33009,0.331821 9.354,2.436406 15.91636,2.421606 24.255,-0.0547 6.93781,-2.060306 9.83327,-1.220126 8.42675,2.445201 -2.05211,5.347719 -21.35897,8.71106 -32.28764,5.62465 z m 34.50445,-3.110437 c 0.53662,-1.300659 1.00242,-3.067959 1.03512,-3.927334 0.0376,-0.989561 1.96244,-1.5625 5.24924,-1.5625 2.85438,0 8.17432,-0.886311 11.82208,-1.96958 6.93781,-2.060306 9.83327,-1.220126 8.42675,2.445201 -1.30302,3.395606 -8.75078,6.162616 -18.24458,6.778274 -8.71258,0.564995 -9.20618,0.459942 -8.28861,-1.764061 z m -52.9186,-3.05766 C 7.1163262,48.934691 1.0748162,45.151433 0.39277622,42.993255 c -0.20404,-0.645669 0.0829,-1.88993 0.63762998,-2.765025 0.80607,-1.271568 1.92352,-1.208813 5.56453,0.3125 2.50575,1.046969 6.3224598,1.903582 8.4815698,1.903582 3.65501,0 3.86713,0.236991 3.0767,3.4375 -1.14877,4.651414 -1.8681,5.075947 -6.76856,3.994674 z m 17.9715,-5.189959 c -15.61114,-5.455227 -8.04204,-15.083814 11.92101,-15.164611 10.07154,-0.04076 17.89348,2.6552 20.49286,7.063208 1.67237,2.836009 -2.23918,6.422052 -9.0764,8.321082 -5.80503,1.612339 -18.43503,1.493451 -23.33747,-0.219679 z m 34.375,-1.394015 c 0,-0.401812 0.65279,-2.163285 1.45064,-3.914384 1.16966,-2.567126 2.33632,-3.183816 6.02313,-3.183816 2.51486,0 7.55701,-0.886311 11.20477,-1.96958 6.93781,-2.060306 9.83327,-1.220126 8.42675,2.445201 -1.2917,3.366112 -8.74964,6.162539 -18.04279,6.765324 -4.98438,0.323303 -9.0625,0.259068 -9.0625,-0.142745 z m -52.3465,-4.666026 C 7.1163262,37.684691 1.0748162,33.901433 0.39277622,31.743255 c -0.20404,-0.645669 0.0829,-1.88993 0.63762998,-2.765025 0.80607,-1.271568 1.92352,-1.208813 5.56453,0.3125 2.50575,1.04697 6.5306698,1.903582 8.9442598,1.903582 4.30805,0 4.36162,0.0629 2.92774,3.4375 -2.06522,4.860394 -2.37271,5.03383 -7.08229,3.994674 z m 47.9715,-8.684981 c -2.0625,-1.366218 -4.6655,-2.486993 -5.78444,-2.490612 -2.72309,-0.0087 -4.93247,-2.835321 -3.73314,-4.775881 0.76269,-1.234052 2.50217,-1.159919 8.31612,0.354424 9.25698,2.411137 14.39526,2.411315 23.64978,8.19e-4 7.61169,-1.982596 10.42422,-1.238458 9.03197,2.389678 -1.36142,3.54781 -8.69194,6.18406 -18.35529,6.601052 -7.71122,0.332755 -10.04051,-0.03629 -13.125,-2.07948 z M 10.192196,26.837613 C 5.1728862,25.271306 -0.04449378,21.803322 2.862241e-4,20.063077 0.07928622,16.99185 2.1735362,16.386081 6.8966662,18.068242 c 6.3818998,2.27294 22.2870598,2.27294 28.6689598,0 4.77267,-1.699806 6.82464,-1.075606 6.89638,2.097845 0.0458,2.024421 -6.83529,5.950691 -12.59311,7.185522 -8.01569,1.719059 -12.93235,1.590626 -19.6767,-0.513996 z m 48.53895,-7.107908 c -6.13165,-1.736676 -10.2369,-5.757095 -8.73814,-8.557564 3.29717,-6.1608029 25.1995,-8.8128839 34.51427,-4.1792179 6.72241,3.3440859 8.10878,6.2342919 4.43634,9.2485649 -5.71998,4.694858 -20.09314,6.354328 -30.21247,3.488217 z m -46.875,-3.446284 C -1.8100738,12.985353 -3.3014338,5.5084061 8.9794962,1.8613601 c 11.6888298,-3.47121 24.1172198,-1.99325801 30.6753798,3.647839 3.39023,2.916148 3.40172,2.977393 1.04706,5.5792679 -4.52775,5.0031 -18.90881,7.593045 -28.84579,5.194954 z"
     style="fill:#f39f18;fill-opacity:1" />
</svg>
