<?xml version="1.0" encoding="UTF-8" standalone="no"?>
<svg
   xmlns:dc="http://purl.org/dc/elements/1.1/"
   xmlns:cc="http://creativecommons.org/ns#"
   xmlns:rdf="http://www.w3.org/1999/02/22-rdf-syntax-ns#"
   xmlns:svg="http://www.w3.org/2000/svg"
   xmlns="http://www.w3.org/2000/svg"
   viewBox="0 0 66.25 87.5"
   height="87.5"
   width="66.25"
   version="1.1"
   id="svg2">
  <metadata
     id="metadata8">
    <rdf:RDF>
      <cc:Work
         rdf:about="">
        <dc:format>image/svg+xml</dc:format>
        <dc:type
           rdf:resource="http://purl.org/dc/dcmitype/StillImage" />
        <dc:title></dc:title>
      </cc:Work>
    </rdf:RDF>
  </metadata>
  <defs
     id="defs6" />
  <path
     id="path4349"
     d="M 0,43.75 0,0 22.16277,0 44.32555,0 55.28777,10.911438 66.25,21.822876 l 0,32.838563 0,32.838561 -33.125,0 L 0,87.5 0,43.75 Z m 62.5,8.666133 0,-31.333869 -9.0625,0.297691 L 44.375,21.677646 44.00774,12.713823 43.64048,3.75 l -19.94524,0 -19.94524,0 0,40 0,40 29.375,0 29.375,0 0,-31.333867 z M 9.06003,74.6875 C 9.42131,73.598475 13.61946,73.01749 22.91419,72.77021 34.21985,72.469431 36.25,72.7073 36.25,74.33271 36.25,75.940438 34.01313,76.25 22.39584,76.25 11.86938,76.25 8.66618,75.874695 9.06003,74.6875 Z m -0.003,-12.5 c 0.30018,-0.910901 3.21066,-1.720061 6.97916,-1.940325 5.17166,-0.302274 6.46425,0.01016 6.46425,1.5625 0,1.522086 -1.50437,1.940325 -6.97917,1.940325 -5.02462,0 -6.83496,-0.437584 -6.46424,-1.5625 z M 9.2711,57.604166 C 7.16727,55.499643 11.6441,55 32.6046,55 48.66317,55 56.31623,55.427631 56.02259,56.308531 55.6058,57.55892 10.47614,58.809609 9.2711,57.604166 Z M 9.06294,49.6875 c 0.75085,-2.25256 46.12414,-2.25256 46.875,0 0.40459,1.213767 -4.82639,1.5625 -23.4375,1.5625 -18.61111,0 -23.84209,-0.348733 -23.4375,-1.5625 z M 9.61776,44.20065 C 7.28879,41.871689 12.25731,41.25 33.19921,41.25 c 19.65665,0 23.05123,0.276117 23.05123,1.875 0,1.598485 -3.37963,1.875 -22.91667,1.875 C 20.7296,45 10.0574,44.640293 9.61776,44.20065 Z m -0.007,-6.256696 C 7.13102,35.464211 10.75671,35 32.6043,35 c 18.5272,0 23.7381,0.348928 23.33442,1.5625 -0.38437,1.155524 -6.37337,1.651003 -22.99354,1.902288 C 20.58459,38.65167 10.0841,38.417298 9.61076,37.943954 Z M 8.75014,30 c 0,-0.789474 8.75,-1.25 23.75,-1.25 15,0 23.75,0.460526 23.75,1.25 0,0.789474 -8.75,1.25 -23.75,1.25 -15,0 -23.75,-0.460526 -23.75,-1.25 z M 9.05958,19.6875 c 0.35193,-1.062003 4.18908,-1.677625 11.97917,-1.921908 9.63473,-0.302126 11.46139,-0.0531 11.46139,1.5625 0,1.595513 -2.03441,1.921908 -11.97917,1.921908 -9.02615,0 -11.85153,-0.385176 -11.46139,-1.5625 z M 9.58347,14.166666 C 7.30908,11.892274 9.74055,11.25 20.62514,11.25 c 9.72222,0 11.875,0.339912 11.875,1.875 0,1.525158 -2.06019,1.875 -11.04167,1.875 -6.07292,0 -11.41666,-0.375 -11.875,-0.833334 z M 53.06632,13.672819 48.12514,8.595637 47.71942,11.903409 C 47.05956,17.283191 48.26362,18.75 53.33959,18.75 l 4.66792,0 -4.94119,-5.077181 z"
     style="fill:#f39f18;fill-opacity:1" />
</svg>
