<?xml version="1.0" encoding="UTF-8" standalone="no"?>
<svg
   xmlns:dc="http://purl.org/dc/elements/1.1/"
   xmlns:cc="http://creativecommons.org/ns#"
   xmlns:rdf="http://www.w3.org/1999/02/22-rdf-syntax-ns#"
   xmlns:svg="http://www.w3.org/2000/svg"
   xmlns="http://www.w3.org/2000/svg"
   viewBox="0 0 86.249977 90"
   height="90"
   width="86.249977"
   version="1.1"
   id="svg2">
  <metadata
     id="metadata8">
    <rdf:RDF>
      <cc:Work
         rdf:about="">
        <dc:format>image/svg+xml</dc:format>
        <dc:type
           rdf:resource="http://purl.org/dc/dcmitype/StillImage" />
        <dc:title></dc:title>
      </cc:Work>
    </rdf:RDF>
  </metadata>
  <defs
     id="defs6" />
  <path
     id="path4349"
     d="m -211.8644,21.080507 0,-43.75 22.16277,0 22.16278,0 10.96222,10.911438 10.96223,10.911438 0,32.838563 0,32.838561 -33.125,0 -33.125,0 0,-43.75 z m 62.5,8.666133 0,-31.333869 -9.0625,0.297691 -9.0625,0.297691 -0.36726,-8.963823 -0.36726,-8.963823 -19.94524,0 -19.94524,0 0,40 0,40 29.375,0 29.375,0 0,-31.333867 z m -53.43997,22.271367 c 0.36128,-1.089025 4.55943,-1.67001 13.85416,-1.91729 11.30566,-0.300779 13.33581,-0.06291 13.33581,1.5625 0,1.607728 -2.23687,1.91729 -13.85416,1.91729 -10.52646,0 -13.72966,-0.375305 -13.33581,-1.5625 z m -0.003,-12.5 c 0.30018,-0.910901 3.21066,-1.720061 6.97916,-1.940325 5.17166,-0.302274 6.46425,0.01016 6.46425,1.5625 0,1.522086 -1.50437,1.940325 -6.97917,1.940325 -5.02462,0 -6.83496,-0.437584 -6.46424,-1.5625 z m 0.21407,-4.583334 c -2.10383,-2.104523 2.373,-2.604166 23.3335,-2.604166 16.05857,0 23.71163,0.427631 23.41799,1.308531 -0.41679,1.250389 -45.54645,2.501078 -46.75149,1.295635 z m -0.20816,-7.916666 c 0.75085,-2.25256 46.12414,-2.25256 46.875,0 0.40459,1.213767 -4.82639,1.5625 -23.4375,1.5625 -18.61111,0 -23.84209,-0.348733 -23.4375,-1.5625 z m 0.55482,-5.48685 c -2.32897,-2.328961 2.63955,-2.95065 23.58145,-2.95065 19.65665,0 23.05123,0.276117 23.05123,1.875 0,1.598485 -3.37963,1.875 -22.91667,1.875 -12.60417,0 -23.27637,-0.359707 -23.71601,-0.79935 z m -0.007,-6.256696 c -2.47974,-2.479743 1.14595,-2.943954 22.99354,-2.943954 18.5272,0 23.7381,0.348928 23.33442,1.5625 -0.38437,1.155524 -6.37337,1.651003 -22.99354,1.902288 -12.36059,0.186882 -22.86108,-0.04749 -23.33442,-0.520834 z m -0.86062,-7.943954 c 0,-0.789474 8.75,-1.25 23.75,-1.25 15,0 23.75,0.460526 23.75,1.25 0,0.789474 -8.75,1.25 -23.75,1.25 -15,0 -23.75,-0.460526 -23.75,-1.25 z m 0.30944,-10.3125 c 0.35193,-1.062003 4.18908,-1.677625 11.97917,-1.921908 9.63473,-0.302126 11.46139,-0.0531 11.46139,1.5625 0,1.595513 -2.03441,1.921908 -11.97917,1.921908 -9.02615,0 -11.85153,-0.385176 -11.46139,-1.5625 z m 0.52389,-5.520834 c -2.27439,-2.274392 0.15708,-2.916666 11.04167,-2.916666 9.72222,0 11.875,0.339912 11.875,1.875 0,1.525158 -2.06019,1.875 -11.04167,1.875 -6.07292,0 -11.41666,-0.375 -11.875,-0.833334 z m 43.48285,-0.493847 -4.94118,-5.077182 -0.40572,3.307772 c -0.65986,5.379782 0.5442,6.846591 5.62017,6.846591 l 4.66792,0 -4.94119,-5.077181 z"
     style="fill:#9f18ff;fill-opacity:0" />
  <path
     id="path4381"
     d="m 40.51402,86.877797 c -0.431,-1.71721 -0.47331,-3.93087 -0.094,-4.91924 0.37927,-0.98837 0.0591,-2.0072 -0.71151,-2.26407 -0.7706,-0.25687 -0.98138,-1.14613 -0.4684,-1.97615 1.40594,-2.274864 3.24099,-0.501687 3.40783,3.29293 0.14656,3.33332 0.15514,3.32983 0.94978,-0.38627 0.44103,-2.0625 1.34479,-3.651559 2.00835,-3.531247 1.68813,0.306077 2.39257,2.906247 0.78738,2.906247 -0.72322,0 -0.99068,0.84501 -0.59436,1.8778 1.10417,2.87742 -0.62255,8.1222 -2.67404,8.1222 -1.00505,0 -2.18,-1.40499 -2.61099,-3.1222 z m -4.06197,0.77352 c -1.05458,-0.66844 -1.52143,-2.81915 -1.26302,-5.81853 0.22725,-2.63772 -0.18773,-4.957357 -0.93121,-5.205183 -0.75799,-0.252665 -1.34114,1.198603 -1.34114,3.337673 0,4.3423 -1.16215,6.03924 -2.92718,4.27421 -3.03384,-3.03384 3.62308,-11.866494 7.08358,-9.398777 0.98426,0.701885 2.34445,13.936877 1.42752,13.890147 -0.20658,-0.0105 -1.12842,-0.49632 -2.04855,-1.07954 z m 11.2991,-5.82317 c 0.34494,-8.243245 2.66363,-8.480261 3.25621,-0.33285 0.31167,4.28508 -0.0711,5.85762 -1.5653,6.43101 -1.6751,0.64279 -1.93393,-0.29067 -1.69091,-6.09816 z m 5.12821,-0.58684 c -1.07588,-2.85032 -1.06659,-3.55362 0.0385,-2.91013 0.80146,0.46671 0.38564,-0.37313 -0.92404,-1.86631 -2.27171,-2.590005 -1.54104,-3.700672 1.15668,-1.758226 1.90262,1.369949 4.48693,7.809816 3.66667,9.137026 -1.26653,2.04929 -2.48622,1.24323 -3.93777,-2.60236 z m 12.80088,-4.90194 c -0.39452,-0.638347 0.27541,-1.406206 1.48873,-1.706353 1.21332,-0.300149 0.68097,-0.358789 -1.18299,-0.130313 C 64.12201,74.731177 62.26069,74.374037 61.8497,73.709056 61.43872,73.044075 59.44816,72.5 57.42624,72.5 c -2.73996,0 -3.67623,-0.587366 -3.67623,-2.306265 0,-3.24171 4.42459,-7.136035 5.72222,-5.036435 0.5504,0.89057 0.3336,1.782426 -0.50091,2.060595 -0.80922,0.269741 -1.47131,1.006064 -1.47131,1.636271 0,1.840254 4.55066,1.318412 6.23858,-0.715403 0.84958,-1.023681 2.04345,-1.552983 2.65305,-1.176229 1.94773,1.203765 1.19365,3.083749 -1.70413,4.248514 -2.35407,0.946218 -1.94657,1.143401 2.5,1.20972 5.65632,0.08436 6.86256,1.661707 2.89468,3.785252 -2.96902,1.588967 -3.49252,1.604827 -4.40195,0.133348 z M 39.70694,74.52415 C 36.9229,72.41007 38.13397,71.25 43.12501,71.25 c 2.17708,0 4.32459,0.366256 4.77224,0.813904 0.90578,0.905787 -2.81384,4.106587 -4.77224,4.106587 -0.6875,0 -2.22563,-0.740854 -3.41807,-1.646341 z M 17.81251,74.172149 C 16.02444,73.450649 15.68839,71.25 17.36627,71.25 c 0.61395,0 1.44004,0.84375 1.83577,1.875 0.39573,1.03125 0.59654,1.830592 0.44624,1.776316 -0.1503,-0.05428 -0.9764,-0.382401 -1.83577,-0.729167 z m 3.75,-2.5 c -3.13349,-1.26439 -1.45036,-2.407055 2.8125,-1.90939 2.67789,0.312629 4.375,-0.02718 4.375,-0.876002 0,-0.762716 -0.58229,-1.386757 -1.29398,-1.386757 -0.83771,0 -0.77451,-0.970648 0.17925,-2.752751 1.13805,-2.126466 1.13067,-2.866935 -0.0324,-3.254638 -1.05907,-0.353023 -0.86939,-1.204955 0.63949,-2.872249 2.72376,-3.009722 4.25768,-3.018159 4.25768,-0.02342 0,1.29082 0.70312,2.904975 1.5625,3.587012 2.17975,1.729947 10.01322,2.964839 11.76168,1.854148 0.79705,-0.506317 -1.10342,-1.019365 -4.22327,-1.140108 -3.11985,-0.12075 -6.20934,-0.756426 -6.86554,-1.41263 -0.65621,-0.656204 -1.00574,-5.478917 -0.77674,-10.717141 0.229,-5.238223 -0.006,-9.522735 -0.52113,-9.521135 -0.51563,0.0016 -0.9375,2.040535 -0.9375,4.530967 0,3.697463 -0.31487,4.266733 -1.71657,3.103433 -0.94411,-0.783542 -2.63161,-1.073486 -3.75,-0.64432 -1.12323,0.431025 -2.03343,0.160918 -2.03343,-0.603433 0,-0.761055 -0.60268,-1.383737 -1.33929,-1.383737 -1.73059,0 -4.91071,-3.180118 -4.91071,-4.910713 0,-0.736608 -0.52413,-1.339287 -1.16473,-1.339287 -0.94802,0 -0.96615,-4.949957 -0.0275,-7.5 0.12654,-0.34375 0.11345,-1.75 -0.0291,-3.125 -0.22591,-2.179333 0.24531,-2.020769 3.67373,1.236203 2.54613,2.4188 3.71879,4.554902 3.3257,6.058065 -0.94782,3.624496 0.46375,5.830732 3.73057,5.830732 1.64519,0 2.99126,-0.47221 2.99126,-1.049356 0,-2.062861 5.73916,-3.597952 12.5,-3.343457 7.27257,0.273757 11.25,1.432178 11.25,3.27655 0,1.831441 5.92613,1.263228 6.65577,-0.638172 0.37028,-0.96494 0.40001,-2.799273 0.0661,-4.076297 -0.39309,-1.503163 0.77957,-3.639265 3.3257,-6.058065 3.42842,-3.256972 3.89964,-3.415536 3.67373,-1.236203 -0.14253,1.375 -0.15561,2.78125 -0.0291,3.125 0.93869,2.550043 0.92057,7.5 -0.0274,7.5 -0.6406,0 -1.16473,0.602679 -1.16473,1.339287 0,1.730595 -3.18012,4.910713 -4.91071,4.910713 -0.73661,0 -1.33929,0.622682 -1.33929,1.383737 0,0.764351 -0.9102,1.034458 -2.03344,0.603433 -1.11839,-0.429166 -2.80589,-0.139222 -3.75,0.64432 -1.40169,1.1633 -1.71656,0.59403 -1.71656,-3.103433 0,-2.490432 -0.42188,-4.528057 -0.9375,-4.528057 -0.51563,0 -0.9375,4.727537 -0.9375,10.505635 0,5.7781 0.42187,10.244904 0.9375,9.92623 0.51562,-0.318675 0.9375,-1.67121 0.9375,-3.005636 0,-2.964769 0.98101,-3.057126 3.94836,-0.371718 2.18684,1.979068 2.17196,2.139723 -0.40534,4.375 -1.47155,1.276269 -3.69682,2.320489 -4.94505,2.320489 -1.46103,0 -2.02362,0.640777 -1.57926,1.798759 0.4906,1.278476 -0.57715,2.036523 -3.69151,2.620781 -5.98831,1.123412 -12.13554,-0.313053 -11.24713,-2.628193 0.41159,-1.072596 -0.0775,-1.791347 -1.2191,-1.791347 -1.04858,0 -2.93688,-0.37663 -4.19624,-0.836956 -2.18781,-0.799704 -2.19236,-0.725775 -0.10223,1.660925 3.7513,4.283574 2.83675,6.6897 -2.5,6.577347 -2.57813,-0.05428 -5.39063,-0.382401 -6.25,-0.729167 z M 50.00001,60.57302 c 0,-4.008899 -5.42327,-7.304524 -6.5997,-4.01052 -0.30692,0.859375 -0.97262,1.178049 -1.47934,0.708164 -1.84785,-1.713543 0.96895,-3.747185 4.47707,-3.232304 3.78287,0.555209 4.96753,-1.092806 1.68972,-2.350621 -1.14471,-0.439265 -1.63336,-1.612511 -1.21743,-2.923005 0.53418,-1.683037 -0.22111,-2.372392 -3.2667,-2.981509 -4.65952,-0.931905 -8.13115,1.148752 -6.06686,3.636067 0.93482,1.126396 0.89112,1.729749 -0.15046,2.076941 -0.91147,0.303823 -1.13408,1.541555 -0.58718,3.264708 0.50097,1.57839 1.47278,2.409543 2.2533,1.927154 0.86419,-0.534101 1.09421,-0.123175 0.62113,1.109641 -0.41321,1.076818 -0.55354,2.153468 -0.31184,2.392556 0.79276,0.784182 10.63829,1.138388 10.63829,0.382728 z m -2.1875,-18.955186 c -1.54688,-0.297941 -4.07813,-0.297941 -5.625,0 -1.54688,0.297941 -0.28125,0.541711 2.8125,0.541711 3.09375,0 4.35937,-0.24377 2.8125,-0.541711 z m 21.77083,28.798832 c -0.45833,-0.458332 -0.83333,-1.652207 -0.83333,-2.653055 0,-1.475804 0.35437,-1.525625 1.875,-0.263611 1.03125,0.855861 1.875,2.049736 1.875,2.653056 0,1.294399 -1.72956,1.450718 -2.91667,0.26361 z M 13.12501,66.25 c -1.976,-2.0625 -3.03023,-3.75 -2.34273,-3.75 0.6875,0 2.86673,1.6875 4.84273,3.75 1.976,2.0625 3.03023,3.75 2.34273,3.75 -0.6875,0 -2.86673,-1.6875 -4.84273,-3.75 z m 53.125,-2.426229 c 0,-0.646926 0.5625,-1.523872 1.25,-1.948771 0.6875,-0.424899 1.25,0.1044 1.25,1.176229 0,1.071823 -0.5625,1.948771 -1.25,1.948771 -0.6875,0 -1.25,-0.529303 -1.25,-1.176229 z m -59.375,-3.41696 C 1.16778,59.14395 0.53776,58.714996 2.53504,57.451897 3.89208,56.59369 3.94555,56.283258 2.73874,56.269141 1.83879,56.258611 1.44526,55.695355 1.86422,55.017455 c 1.48551,-2.403594 6.12338,-0.483712 7.03116,2.910597 0.48863,1.827072 0.79644,3.256697 0.68403,3.176947 -0.11242,-0.07975 -1.3294,-0.393935 -2.7044,-0.698188 z m 12.72877,-6.177229 c 0.66153,-1.723912 0.37817,-1.807878 -1.9308,-0.572156 -1.65664,0.886611 -3.46482,1.023659 -4.66253,0.353388 -1.65653,-0.927043 -1.46238,-1.418587 1.26657,-3.20666 1.77264,-1.161482 3.22299,-1.626609 3.22299,-1.033614 0,0.592995 1.43797,1.733355 3.19549,2.534133 3.22277,1.468393 3.15683,3.945327 -0.10503,3.945327 -1.10903,0 -1.47468,-0.748734 -0.98669,-2.020418 z M 25.62501,55 c 0.4249,-0.6875 1.02059,-1.25 1.32377,-1.25 0.30318,0 0.55123,0.5625 0.55123,1.25 0,0.6875 -0.5957,1.25 -1.32377,1.25 -0.72808,0 -0.97613,-0.5625 -0.55123,-1.25 z m 33.125,-0.07377 c 0,-0.728074 0.5625,-0.976128 1.25,-0.551229 0.6875,0.424899 1.25,1.020595 1.25,1.323771 0,0.303176 -0.5625,0.551229 -1.25,0.551229 -0.6875,0 -1.25,-0.595698 -1.25,-1.323771 z m 4.37829,0.07909 c -0.4231,-0.684575 0.66871,-1.899865 2.42623,-2.700643 1.75751,-0.800778 3.19548,-1.941138 3.19548,-2.534133 0,-0.592995 1.45035,-0.127868 3.22299,1.033614 2.72895,1.788073 2.9231,2.279617 1.26657,3.20666 -1.19771,0.670271 -3.00589,0.533224 -4.66254,-0.353388 -2.30896,-1.235722 -2.59232,-1.151756 -1.93079,0.572157 0.8539,2.225218 -2.20521,2.899776 -3.51794,0.775733 z M 26.20892,51.761993 C 19.92837,49.90051 11.77989,43.426454 13.07664,41.328258 13.53415,40.588004 13.01474,39.639375 11.92233,39.220193 10.4554,38.657277 10.28717,38.03515 11.2788,36.840307 12.21107,35.716992 12.22082,34.974995 11.3107,34.412514 9.41805,33.242794 9.69991,31.25 11.758,31.25 c 1.42793,0 1.50861,-0.812595 0.42968,-4.328058 C 11.4571,24.541511 10.35744,22.904089 9.74398,23.283227 9.11857,23.669754 9.21384,24.67774 9.96087,25.577849 11.5696,27.516251 10.24728,31.62832 8.2762,30.816757 7.50554,30.499449 5.75,29.858702 4.375,29.392874 1.9409,28.568238 1.93733,28.596836 4.23976,30.477877 c 1.30062,1.062581 2.98812,2.156492 3.75,2.430913 0.76188,0.274422 1.07794,0.836383 0.70235,1.248802 C 8.31652,34.570012 6.20715,33.811538 4.00461,32.472095 1.20575,30.770005 0,29.090309 0,26.893372 0,23.097575 0.55399,23.021071 4.65891,26.25 9.68829,30.206109 10.62268,29.164232 6.37949,24.331505 2.23696,19.613417 1.78704,17.970379 3.82422,15 c 1.09249,-1.59295 1.6067,-1.413512 3.41836,1.192855 1.17283,1.687321 3.67929,4.765805 5.56992,6.841077 3.4926,3.833708 4.50568,8.658351 2.1268,10.128582 -0.90809,0.561231 -0.91142,1.291151 -0.0109,2.376283 0.71492,0.861425 0.94332,1.922753 0.50757,2.358507 -0.43575,0.435755 -0.0808,1.649625 0.7889,2.697489 0.86968,1.047864 1.15438,1.905207 0.6327,1.905207 -2.93458,0 6.17022,6.569089 9.32468,6.727735 3.44981,0.1735 7.48811,2.584478 6.23439,3.72211 -0.29792,0.270331 -3.09141,-0.264203 -6.20776,-1.187853 z M 7.50001,20.625 c -0.88344,-1.064479 -1.8875,-1.654165 -2.23125,-1.310415 -0.34375,0.34375 0.0978,1.495936 0.98125,2.560415 0.88344,1.064479 1.8875,1.654165 2.23125,1.310415 C 8.82501,22.841665 8.38346,21.689479 7.50001,20.625 Z m 46.25,31.888982 c 0,-1.704075 2.74462,-3.072004 6.58796,-3.283467 C 63.27589,49.06887 72.11287,42.5 69.39241,42.5 c -0.52168,0 -0.23698,-0.857343 0.63267,-1.905207 0.86965,-1.047864 1.22465,-2.261734 0.7889,-2.697489 -0.43575,-0.435754 -0.20735,-1.497082 0.50757,-2.358507 0.90058,-1.085132 0.89725,-1.815052 -0.0109,-2.376283 C 68.93179,31.692283 69.94487,26.86764 73.43748,23.033932 75.3281,20.95866 77.83457,17.880176 79.0074,16.192855 80.81905,13.586488 81.33327,13.40705 82.42576,15 c 2.03718,2.970379 1.58727,4.613417 -2.55527,9.331505 -4.24319,4.832727 -3.3088,5.874604 1.72058,1.918495 4.10492,-3.228929 4.65891,-3.152425 4.65891,0.643372 0,2.196937 -1.20575,3.876633 -4.00461,5.578723 -2.20254,1.339443 -4.31191,2.097917 -4.6875,1.685497 -0.37559,-0.412419 -0.0595,-0.97438 0.70235,-1.248802 0.76188,-0.274421 2.44938,-1.368332 3.75,-2.430912 2.0665,-1.688289 2.08885,-1.840264 0.17726,-1.204922 -1.20313,0.399874 -2.95866,1.040621 -3.9012,1.423883 -2.85736,1.161885 -3.58683,-3.329334 -1.0076,-6.20366 C 78.57084,23.05318 80.03585,21.03125 80.53426,20 c 0.4984,-1.03125 -0.19184,-0.633295 -1.53387,0.884344 -1.34203,1.51764 -2.69691,2.502493 -3.01083,2.188566 -0.31393,-0.313927 -1.17486,1.397493 -1.91318,3.803156 -1.09307,3.561559 -1.01588,4.373934 0.4156,4.373934 2.07672,0 2.28029,1.477705 0.45502,3.302978 -1.7682,1.768202 1.69501,4.594932 4.68043,3.820244 1.76489,-0.457972 1.64356,-0.614358 -0.56495,-0.72822 -2.90394,-0.149717 -4.04911,-2.228335 -1.22765,-2.228335 0.87167,0 3.12167,-0.385717 5,-0.857148 2.49914,-0.627246 3.41515,-0.388905 3.41515,0.88861 0,2.995338 -3.43832,4.777836 -8.37892,4.34381 -3.35773,-0.294972 -4.65091,0.0514 -4.42075,1.184055 0.31844,1.567099 -1.95091,4.348194 -6.20475,7.603935 -2.91378,2.230102 -13.49558,5.31477 -13.49558,3.934054 z M 7.75007,49.750062 c -1.16658,-1.166585 -0.73598,-1.858347 1.9375,-3.112605 2.41288,-1.131997 2.61322,-1.409434 0.67216,-0.930813 -2.9802,0.734848 -7.85972,-1.283225 -7.85972,-3.250624 0,-0.663311 1.54687,-1.282622 3.4375,-1.376247 3.37524,-0.167145 3.3809,-0.180634 0.3125,-0.744773 -3.8536,-0.708501 -6.25,-2.582245 -6.25,-4.886871 0,-1.277515 0.91601,-1.515856 3.41515,-0.88861 1.87833,0.471431 4.12833,0.857148 5,0.857148 2.68887,0 1.7483,1.877975 -1.22765,2.451167 -2.72297,0.524466 -2.72723,0.54713 -0.13374,0.711939 2.82274,0.179376 5.21254,3.863284 2.59451,3.99946 -0.8378,0.04357 -0.19885,0.609701 1.41988,1.25805 1.88429,0.754712 2.6854,1.85049 2.22673,3.045766 -0.39403,1.026824 -0.031,1.906486 0.80685,1.954808 0.8378,0.04832 0.39827,0.571286 -0.97673,1.162143 -3.42088,1.470001 -3.66642,1.458584 -5.37494,-0.249938 z M 72.50001,50 c -1.55527,-1.00509 -1.44869,-1.218246 0.625,-1.25 1.91143,-0.02926 2.09444,-0.295158 0.77736,-1.129386 -2.12513,-1.346031 -0.76008,-3.863775 2.10891,-3.889755 1.82159,-0.01649 1.85459,-0.18661 0.23873,-1.230859 -1.39469,-0.901318 -0.67423,-1.216621 2.8125,-1.230858 2.57812,-0.0105 4.6875,0.523567 4.6875,1.186878 0,1.967399 -4.87952,3.985472 -7.85972,3.250624 -1.94106,-0.478621 -1.74072,-0.201184 0.67216,0.930813 2.67348,1.254258 3.10408,1.94602 1.9375,3.112605 C 76.69703,51.552975 75.0117,51.623181 72.50001,50 Z M 35.64638,34.844037 c 1.24441,-4.04146 1.07353,-3.951179 7.47863,-3.951179 6.43031,0 6.22753,-0.110413 7.52502,4.09734 0.78208,2.536284 0.63672,2.87685 -0.78221,1.832622 -2.07343,-1.525887 -11.03173,-1.571738 -13.43923,-0.06879 -1.32644,0.828069 -1.49703,0.41151 -0.78221,-1.909997 z M 35.00001,28.042245 C 35.00001,26.620897 37.64721,25 39.96851,25 c 0.55771,0 1.31555,0.785764 1.68408,1.746141 0.45728,1.191637 -0.49263,1.916788 -2.99126,2.283509 -2.3411,0.3436 -3.66132,-0.01245 -3.66132,-0.987405 z m 12.22198,0.872361 c -2.4651,-0.57198 -3.11102,-1.25712 -2.34356,-2.485871 1.33502,-2.137449 6.37158,-0.730012 6.37158,1.7805 0,0.98492 -0.14063,1.724212 -0.3125,1.642871 -0.17188,-0.08134 -1.84386,-0.503216 -3.71552,-0.9375 z M 23.75001,26.270451 c 0,-1.17494 4.93179,-3.203211 6.65541,-2.737136 0.56673,0.153244 0.69977,-0.256369 0.29565,-0.910252 -0.44693,-0.723148 -2.22823,-0.760562 -4.54714,-0.09551 -3.24129,0.929589 -3.75113,0.775359 -3.40353,-1.029591 0.22487,-1.167625 1.52614,-2.122959 2.89173,-2.122959 3.53577,0 4.42093,-1.866734 2.36963,-4.997409 -2.13618,-3.260231 -1.25646,-4.377591 3.44658,-4.377591 3.75598,0 4.91036,3.131309 2.16608,5.875585 -1.00078,1.000781 -0.52258,1.324338 1.75506,1.1875 1.72185,-0.10345 2.84826,-0.645405 2.50313,-1.204351 -0.80188,-1.29868 3.27846,-5.858734 5.2424,-5.858734 2.00007,0 6.03759,4.571144 5.21422,5.903376 -0.36062,0.5835 0.38986,1.06091 1.66773,1.06091 1.87518,0 2.18905,-0.671768 1.62698,-3.482143 -0.64076,-3.203799 -0.39008,-3.482143 3.13605,-3.482143 4.64758,0 6.11523,1.92145 3.64058,4.766266 -1.00889,1.159804 -1.55352,2.890156 -1.21028,3.845229 0.34322,0.955071 0.10911,1.418245 -0.52026,1.029274 -0.62937,-0.388973 -1.14431,0.330275 -1.14431,1.598326 0,1.522309 1.18295,2.542138 3.48215,3.001976 1.91518,0.383037 3.48214,1.244289 3.48214,1.913895 0,0.669608 -2.04598,0.362603 -4.54662,-0.682232 -2.50065,-1.044836 -6.08228,-1.943363 -7.9592,-1.996728 -2.96289,-0.08424 -3.41229,-0.607906 -3.4104,-3.974017 0.003,-4.918646 -1.3944,-8.251989 -3.45878,-8.251989 -2.06438,0 -3.46154,3.333343 -3.45878,8.251989 0.002,3.366111 -0.44751,3.889775 -3.4104,3.974017 -1.87692,0.05336 -5.45856,0.951892 -7.9592,1.996728 -2.50064,1.044835 -4.54662,1.403807 -4.54662,0.797717 z m 36.5625,-3.544065 c -1.54688,-0.220145 -2.8125,-0.941295 -2.8125,-1.602556 0,-1.856726 3.76012,-2.863705 5.22465,-1.399184 1.96084,1.960848 0.76146,3.453394 -2.41215,3.00174 z M 15.28894,15.759951 c -1.14855,-2.520796 -0.91628,-3.409117 1.48003,-5.660336 3.49388,-3.282328 6.37344,-2.391011 8.07867,2.500604 1.62289,4.655435 0.7339,4.666463 -2.08819,0.0259 -1.979,-3.254218 -2.44485,-3.44762 -4.56683,-1.89599 -1.9976,1.460681 -2.14136,2.214391 -0.92962,4.873875 0.78838,1.730301 0.97326,3.145996 0.41085,3.145996 -0.5624,0 -1.63561,-1.345521 -2.38491,-2.990049 z M 68.98702,15.60401 c 1.21174,-2.659484 1.06798,-3.413194 -0.92962,-4.873875 -2.12198,-1.55163 -2.58783,-1.358228 -4.56683,1.89599 -2.8221,4.640557 -3.71108,4.629529 -2.08819,-0.0259 1.70522,-4.891615 4.58479,-5.782931 8.07866,-2.500604 2.39632,2.251219 2.62859,3.13954 1.48004,5.660336 -0.7493,1.644522 -1.82251,2.990043 -2.38492,2.990043 -0.5624,0 -0.37752,-1.415695 0.41086,-3.14599 z M 38.2143,6.785714 C 35.79653,4.367947 35.74887,3.222019 37.98879,1.363057 c 1.39864,-1.160774 2.00993,-0.665193 3.12499,2.533473 0.76243,2.18709 1.38623,4.17384 1.38623,4.414999 0,1.135188 -2.52294,0.236965 -4.28571,-1.525815 z m 6.26056,-0.951809 c 1.62486,-5.318783 2.44563,-6.163342 4.07811,-4.196325 1.92241,2.316368 0.70545,5.437888 -2.44078,6.260647 -2.04892,0.535804 -2.32523,0.187432 -1.63733,-2.064322 z M 30.00001,5 c 0,-0.6875 0.5957,-1.25 1.32377,-1.25 0.72807,0 0.97613,0.5625 0.55123,1.25 -0.4249,0.6875 -1.0206,1.25 -1.32377,1.25 C 30.24806,6.25 30.00001,5.6875 30.00001,5 Z M 42.04896,3.127573 C 40.93287,0.219092 41.00825,0 43.12501,0 c 2.10431,0 2.3417,1.078369 0.77981,3.542307 -0.8431,1.330025 -1.21852,1.246128 -1.85586,-0.414734 z"
     style="fill:#f39f18;fill-opacity:1" />
</svg>
