<?xml version="1.0" encoding="UTF-8" standalone="no"?>
<svg
   xmlns:dc="http://purl.org/dc/elements/1.1/"
   xmlns:cc="http://creativecommons.org/ns#"
   xmlns:rdf="http://www.w3.org/1999/02/22-rdf-syntax-ns#"
   xmlns:svg="http://www.w3.org/2000/svg"
   xmlns="http://www.w3.org/2000/svg"
   viewBox="0 0 83.052208 84.148895"
   height="67"
   width="68"
   version="1.1"
   id="svg2">
  <metadata
     id="metadata8">
    <rdf:RDF>
      <cc:Work
         rdf:about="">
        <dc:format>image/svg+xml</dc:format>
        <dc:type
           rdf:resource="http://purl.org/dc/dcmitype/StillImage" />
        <dc:title></dc:title>
      </cc:Work>
    </rdf:RDF>
  </metadata>
  <defs
     id="defs6" />
  <path
     id="path3338"
     d="m 73.137165,81.933895 c -4.12333,-1.450445 -10.27197,-2.434719 -15.3623,-2.459193 -9.76525,-0.04695 -16.20419,-2.709963 -21.35583,-8.832335 -4.02076,-4.778406 -5.02477,-8.469996 -4.22747,-15.54369 0.83271,-7.387738 5.0732,-12.872698 12.69623,-16.422239 21.81574,-10.158144 45.78199,8.591896 35.8547,28.050993 -2.31578,4.539309 -2.32211,4.908275 -0.19208,11.200203 2.50711,7.405805 2.40613,7.460377 -7.41325,4.006261 z M 48.659935,61.175159 c 2.51699,-0.965863 2.57696,-5.339588 0.0863,-6.295339 -3.02869,-1.162218 -5.79879,1.863969 -4.28884,4.685331 1.41924,2.651878 1.45337,2.664954 4.20252,1.610008 z m 12.0293,-1.178999 c 1.32554,-1.59719 1.25964,-2.286271 -0.37502,-3.920931 -1.09076,-1.090756 -2.87056,-1.64268 -3.95512,-1.226495 -2.34485,0.899801 -2.6366,5.358629 -0.40943,6.25731 2.56142,1.033555 3.05698,0.917506 4.73957,-1.109884 z m 9.93472,0.07865 c 1.83441,-2.210325 0.81908,-5.640915 -1.6695,-5.640915 -0.96865,0 -2.46143,0.84375 -3.31729,1.875 -1.24148,1.495895 -1.24148,2.254105 0,3.75 1.95643,2.357349 3.0407,2.36081 4.98679,0.01591 z M 2.6220349,63.496395 c 3.68433,-8.959066 3.72009,-11.570931 0.24886,-18.174798 -3.79845104,-7.226401 -3.83235304,-19.486188 -0.0736,-26.631052 3.33791,-6.344959 10.1579001,-12.4441457 17.7112501,-15.8393483 8.53498,-3.836442 24.80623,-3.79467736 33.25366,0.085355 11.24558,5.1652646 20.52665,16.6822983 20.59755,25.5598433 0.031,3.882169 0.0634,3.864526 -4.15039,2.262459 -2.04081,-0.775915 -3.38859,-2.531812 -3.96791,-5.169427 -0.48878,-2.225408 -3.26562,-6.382697 -6.27017,-9.387246 C 40.607295,-3.1618 2.7323549,11.269698 7.4145349,36.227888 c 0.45218,2.410328 2.26893,6.101817 4.0372201,8.203308 3.02106,3.590333 3.12781,4.167435 1.76897,9.563845 -0.79535,3.158624 -1.275,5.914039 -1.0659,6.123144 0.20911,0.209106 3.04694,-0.90506 6.30629,-2.475925 l 5.92605,-2.856117 0,3.998232 c 0,3.140754 -0.73722,4.341149 -3.4375,5.597171 -3.28266,1.526914 -18.8019501,6.302349 -20.48148014,6.302349 -0.44106,0 0.52817,-3.234375 2.15385004,-7.1875 z"
     style="fill:#f39f18;fill-opacity:1" />
</svg>
