<?xml version="1.0" encoding="UTF-8" standalone="no"?>
<svg
   xmlns:dc="http://purl.org/dc/elements/1.1/"
   xmlns:cc="http://creativecommons.org/ns#"
   xmlns:rdf="http://www.w3.org/1999/02/22-rdf-syntax-ns#"
   xmlns:svg="http://www.w3.org/2000/svg"
   xmlns="http://www.w3.org/2000/svg"
   viewBox="0 0 105.01645 89.544304"
   height="72"
   width="84"
   version="1.1"
   id="svg2">
  <metadata
     id="metadata8">
    <rdf:RDF>
      <cc:Work
         rdf:about="">
        <dc:format>image/svg+xml</dc:format>
        <dc:type
           rdf:resource="http://purl.org/dc/dcmitype/StillImage" />
        <dc:title></dc:title>
      </cc:Work>
    </rdf:RDF>
  </metadata>
  <defs
     id="defs6" />
  <path
     id="path4189"
     d="m 87.793317,80.562864 -9.08168,-9.15694 4.12681,-3.99986 4.12681,-3.99986 9.26911,9.33139 c 8.651233,8.70936 9.188303,9.5625 8.056863,12.79856 -2.27175,6.49752 -6.336673,5.27215 -16.497913,-4.97329 z M 40.625,71.856474 C 30.340919,68.224164 20.410223,57.681674 17.540638,47.349964 14.169064,35.210884 17.112154,22.011074 25.25219,12.763509 41.326085,-5.4974025 70.170587,-3.9213135 83.311477,15.935914 l 3.35968,5.07681 -2.59474,2.59474 -2.59474,2.59474 -1.90991,-3.69338 C 74.427097,12.560149 59.438898,4.7297025 49.129521,6.6045605 27.986202,10.449674 16.713601,32.185444 26.209471,50.798884 c 2.815788,5.5194 10.048776,12.18817 15.846971,14.61081 14.813809,6.18961 35.303955,-3.75159 39.501195,-19.16477 0.90128,-3.3097 2.80312,-6.27216 5.13192,-7.99393 l 3.69999,-2.73551 -0.81158,5.92106 c -0.44636,3.25659 -2.16844,8.62254 -3.82685,11.92435 -2.22723,4.43433 -2.64904,6.36951 -1.61396,7.40459 1.03507,1.03508 0.34127,2.45801 -2.65471,5.44458 -3.0062,2.99675 -4.31485,3.62816 -5.05602,2.43949 -0.77903,-1.24941 -2.49717,-0.90685 -7.77571,1.55028 -5.309275,2.47145 -8.669446,3.13536 -15.525717,3.0676 -4.8125,-0.0476 -10.4375,-0.68249 -12.5,-1.41096 z M 0,60.510184 c 0,-3.95413 12.160735,-13.43239 13.836636,-10.78448 0.618795,0.9777 1.1023,2.05887 1.074457,2.40262 -0.06424,0.79303 -13.275502,11.25 -14.213169,11.25 C 0.314066,63.378324 0,62.087664 0,60.510184 Z m 38.76998,-13.34055 c -2.339128,-4.83522 -4.599278,-8.79131 -5.022558,-8.79131 -0.423279,0 -1.861483,0.82586 -3.196009,1.83525 -3.279769,2.48069 -4.301413,2.36321 -4.301413,-0.49465 0,-2.45282 7.284345,-9.12142 8.883832,-8.13288 0.482662,0.2983 2.717991,3.77672 4.9674,7.72982 l 4.089834,7.18746 5.091967,-15.54044 c 2.800582,-8.54724 5.770546,-15.7578 6.599921,-16.02348 0.874068,-0.27999 4.168593,4.8189 7.837357,12.12976 l 6.329406,12.61281 15.01804,-11.58932 C 106.33034,11.684459 105,12.486889 105,16.069944 c 0,2.37751 -3.59916,5.76598 -17.422373,16.40247 -9.5823,7.37325 -18.01373,13.40591 -18.73651,13.40591 -0.72278,0 -3.778038,-4.90336 -6.789457,-10.89636 l -5.475306,-10.89637 -4.888252,15.57399 c -3.16921,10.09711 -5.552361,15.70187 -6.776707,15.93766 -1.25463,0.24162 -3.315885,-2.58696 -6.141415,-8.42761 z"
     style="fill:#f39f18;fill-opacity:1" />
</svg>
