<?xml version="1.0" encoding="UTF-8" standalone="no"?>
<svg
   xmlns:dc="http://purl.org/dc/elements/1.1/"
   xmlns:cc="http://creativecommons.org/ns#"
   xmlns:rdf="http://www.w3.org/1999/02/22-rdf-syntax-ns#"
   xmlns:svg="http://www.w3.org/2000/svg"
   xmlns="http://www.w3.org/2000/svg"
   viewBox="0 0 87.256584 94.899842"
   height="76"
   width="70"
   version="1.1"
   id="svg2">
  <metadata
     id="metadata8">
    <rdf:RDF>
      <cc:Work
         rdf:about="">
        <dc:format>image/svg+xml</dc:format>
        <dc:type
           rdf:resource="http://purl.org/dc/dcmitype/StillImage" />
        <dc:title></dc:title>
      </cc:Work>
    </rdf:RDF>
  </metadata>
  <defs
     id="defs6" />
  <path
     id="path4253"
     d="M 3.06818,91.831663 0,88.763483 0,53.649844 0,18.536207 3.06818,15.468025 c 2.35758,-2.357575 4.38412,-3.068181 8.75,-3.068181 4.21717,0 5.68182,0.483333 5.68182,1.875 0,1.344298 -1.37188,1.875 -4.84695,1.875 -2.66582,0 -5.49066,0.775635 -6.27743,1.723632 -2.1999,2.650715 -2.09601,70.799457 0.11006,72.198477 0.90162,0.57178 15.23976,1.04822 31.86253,1.05875 25.83921,0.0164 30.50843,-0.26608 32.18949,-1.94713 1.08145,-1.08145 2.94975,-1.77077 4.15178,-1.53183 1.88505,0.37472 1.72073,0.90283 -1.19516,3.84128 l -3.38069,3.40682 -31.98863,0 -31.98864,0 -3.06818,-3.06818 z M 66.9271,82.738043 C 56.93467,80.199813 51.94179,68.189613 56.89616,58.608928 60.71828,51.21776 73.82395,48.523463 80.4814,53.760214 c 10.49914,8.258627 8.48237,22.908719 -3.87875,28.175729 -4.13758,1.763 -5.46084,1.87269 -9.67555,0.8021 z m 4.3229,-6.45301 c 0,-0.61314 2.61196,-4.01993 5.80435,-7.57064 4.55321,-5.06427 5.47404,-6.777414 4.27195,-7.947695 -1.19628,-1.164623 -2.74802,-0.158107 -7.0744,4.588725 l -5.54201,6.08058 -2.57067,-3.26808 C 63.7122,65.082463 60,63.713293 60,65.903593 c 0,2.06042 7.78351,11.49625 9.48314,11.49625 0.97177,0 1.76686,-0.50166 1.76686,-1.11481 z m -55,-2.63519 c 0,-0.77381 6.66666,-1.25 17.5,-1.25 10.83333,0 17.5,0.47619 17.5,1.25 0,0.77381 -6.66667,1.25 -17.5,1.25 -10.83334,0 -17.5,-0.47619 -17.5,-1.25 z M 24.6875,58.97171 c 4.98437,-0.237264 13.14062,-0.237264 18.125,0 4.98437,0.237265 0.90625,0.431391 -9.0625,0.431391 -9.96875,0 -14.04688,-0.194126 -9.0625,-0.431391 z M 16.25,44.899844 c 0,-0.785714 8.125,-1.25 21.875,-1.25 13.75,0 21.875,0.464286 21.875,1.25 0,0.785714 -8.125,1.25 -21.875,1.25 -13.75,0 -21.875,-0.464286 -21.875,-1.25 z m 56.17003,0.3125 c -0.044,-0.515625 -0.01,-6.199226 0.0759,-12.630225 0.18465,-13.854145 -1.21793,-16.432275 -8.93966,-16.432275 -3.4389,0 -4.80626,-0.53343 -4.80626,-1.875 0,-1.391667 1.46464,-1.875 5.68182,-1.875 4.36588,0 6.39242,0.710606 8.75,3.068181 2.8872,2.887206 3.06818,3.882576 3.06818,16.875 0,11.439395 -0.3215,13.806819 -1.875,13.806819 -1.03125,0 -1.91099,-0.421875 -1.95497,-0.9375 z M 16.25,31.149844 c 0,-0.785714 8.125,-1.25 21.875,-1.25 13.75,0 21.875,0.464286 21.875,1.25 0,0.785714 -8.125,1.25 -21.875,1.25 -13.75,0 -21.875,-0.464286 -21.875,-1.25 z m 6.49717,-19.0625 c 0.36567,-6.3512417 0.50439,-6.5747948 4.30943,-6.9444357 2.16238,-0.210064 4.92144,-1.475689 6.13124,-2.8125 2.81198,-3.10721105 7.06233,-3.10721105 9.87432,0 1.2098,1.336811 3.96885,2.602436 6.13123,2.8125 3.80504,0.369641 3.94377,0.593194 4.30943,6.9444357 l 0.37783,6.5625 -15.75565,0 -15.75565,0 0.37782,-6.5625 z M 40.625,7.3998443 c 0,-3.5632841 -3.94535,-5.074132 -5.13752,-1.967383 -1.13724,2.963613 0.47188,5.9566647 2.94624,5.4801467 C 39.8175,10.646117 40.625,9.3516393 40.625,7.3998443 Z"
     style="fill:#f39f18;fill-opacity:1" />
</svg>
